<svg xmlns="http://www.w3.org/2000/svg" width="80" height="45" viewBox="0 0 80 45">
    <g fill="none" fill-rule="evenodd">
        <path fill="#FFF" d="M0 0L80 0 80 45 0 45z"/>
        <g>
            <path fill="#1D1D1B" d="M10.83 12.52H7.008l-.179-1.042c-.9.879-2.069 1.318-3.503 1.318-.949 0-1.725-.235-2.33-.707C.334 11.557 0 10.813 0 9.858 0 8.58.575 7.691 1.726 7.19c.474-.21 1.535-.427 3.183-.65 1.152-.159 1.728-.468 1.728-.927 0-.534-.403-.8-1.21-.8-.794 0-1.227.316-1.298.949H.569c0-2.184 1.696-3.276 5.088-3.276 2.004 0 3.34.385 4.008 1.154.45.522.675 1.483.675 2.885v4.565c-.011.226.013.452.071.67.082.23.228.43.418.573v.187zm-5.831-1.917c1.197 0 1.74-.801 1.63-2.402-.398.177-.814.308-1.239.39-.557.123-.925.24-1.104.354-.296.162-.478.489-.466.839.003.546.396.819 1.179.819z" transform="translate(16 16)"/>
            <path fill="#1D1D1B" d="M9.903 12.52L13.248 7.419 10.17 2.765 14.279 2.765 15.453 5.204 16.699 2.765 20.755 2.765 17.57 7.4 20.79 12.52 16.663 12.52 15.347 9.728 13.995 12.52 9.903 12.52z" transform="translate(16 16)"/>
            <path fill="#1D1D1B" d="M30.089 8.517h-7.063c-.016.518.178 1.018.535 1.378.345.356.814.55 1.298.54.664 0 1.126-.285 1.387-.854h3.54c-.295 1.115-.965 1.952-2.01 2.51-.878.473-1.926.708-3.144.708-1.552 0-2.81-.435-3.77-1.303-1.022-.92-1.533-2.174-1.533-3.761 0-1.575.51-2.854 1.528-3.835.984-.943 2.235-1.414 3.753-1.414 1.708 0 3.054.559 4.038 1.676.985 1.117 1.465 2.569 1.44 4.355zm-7.063-1.973h3.363c0-.448-.177-.876-.49-1.182-.298-.329-.713-.514-1.147-.512-1.15 0-1.726.565-1.726 1.694z" transform="translate(16 16)"/>
            <path fill="#1D1D1B" d="M29.25 9.485h3.52c-.015.337.124.661.374.874.263.216.59.328.925.317.784 0 1.175-.292 1.175-.875 0-.398-.493-.702-1.477-.913-1.436-.325-2.355-.585-2.757-.781-.984-.51-1.476-1.31-1.477-2.402 0-1.129.492-1.979 1.477-2.55.782-.447 1.76-.67 2.935-.67 2.917 0 4.459 1.024 4.624 3.071h-3.362c-.071-.633-.439-.95-1.102-.95-.699 0-1.048.23-1.048.69 0 .335.51.62 1.529.852 1.424.325 2.367.61 2.828.853 1.02.533 1.53 1.328 1.53 2.383s-.41 1.877-1.228 2.465c-.865.632-2.128.947-3.79.947-1.256 0-2.276-.223-3.058-.67-.984-.558-1.523-1.44-1.619-2.643v.002z" transform="translate(16 16)"/>
            <path fill="#1D1D1B" d="M38.31 9.485h3.522c-.015.337.123.662.372.875.264.216.592.328.926.317.783 0 1.174-.292 1.174-.875 0-.397-.492-.702-1.477-.913-1.434-.325-2.353-.585-2.757-.781-.984-.51-1.476-1.31-1.476-2.402 0-1.129.492-1.978 1.476-2.55.783-.446 1.761-.67 2.936-.67 2.916 0 4.458 1.024 4.625 3.071h-3.368c-.071-.633-.439-.95-1.103-.95-.698 0-1.048.23-1.048.69 0 .335.51.62 1.53.853 1.423.324 2.366.609 2.829.853C47.49 7.536 48 8.33 48 9.385c0 1.056-.41 1.877-1.229 2.464-.864.632-2.127.947-3.788.947-1.257 0-2.277-.223-3.06-.67-.983-.557-1.521-1.437-1.614-2.64z" transform="translate(16 16)"/>
            <path fill="#FFD520" d="M12.761 0L15.409 5.5 18.217 0 12.761 0z" transform="translate(16 16)"/>
        </g>
    </g>
</svg>
