<svg xmlns="http://www.w3.org/2000/svg" width="80" height="45" viewBox="0 0 80 45">
    <g fill="none" fill-rule="evenodd">
        <path fill="#FFF" d="M0 0L80 0 80 45 0 45z"/>
        <g fill="#7DC142" fill-rule="nonzero">
            <path d="M9.93 4.15H6.396V.475C6.404.346 6.358.222 6.27.132c-.086-.09-.206-.138-.329-.13H4.414c-.123-.012-.245.034-.333.125-.087.091-.131.218-.12.347V4.15H.454c-.124-.012-.246.034-.333.126-.088.092-.131.22-.119.348v1.594c-.012.128.032.255.12.346.087.09.209.137.332.125h3.505v3.658c-.011.128.033.255.12.347.088.091.21.137.333.125h1.53c.124.012.246-.034.333-.125.088-.092.132-.219.12-.347V6.702 6.69H9.93c.123.012.245-.034.333-.125.087-.091.131-.218.12-.346V4.624c.008-.127-.038-.252-.124-.343-.087-.09-.206-.138-.329-.13zM18.224 8.06V6.263c0-1.732-1.234-3.018-2.814-3.018-.707 0-1.118.343-1.316.343-.066 0-.115-.068-.115-.188V.467c.006-.047-.01-.094-.042-.127-.032-.034-.077-.05-.123-.044h-1.546c-.115 0-.164.051-.164.171v10.455c0 .12.05.17.164.17h1.399c.23 0 .132-.341.278-.341.199 0 .577.342 1.317.342 1.711.003 2.962-1.232 2.962-3.032zm-1.892 0c.01.329-.108.647-.33.88-.22.234-.524.363-.839.356-.315.004-.62-.124-.842-.357-.223-.233-.346-.55-.342-.878v-1.8c0-.676.527-1.225 1.177-1.225s1.176.549 1.176 1.226V8.06zM24.952 8.233V6.108c0-1.817-1.218-3.035-3.063-3.035-1.859 0-3.076 1.218-3.076 3.035v2.125c0 1.818 1.217 3.035 3.076 3.035 1.845 0 3.063-1.217 3.063-3.035zm-1.893 0c0 .676-.526 1.224-1.175 1.224-.65 0-1.176-.548-1.176-1.224V6.108c0-.677.527-1.225 1.176-1.225.649 0 1.175.548 1.175 1.225v2.125zM31.747 11.096h-1.563c-.116 0-.164-.052-.164-.17V6.262c0-.677-.527-1.226-1.177-1.226s-1.176.549-1.176 1.226v4.664c0 .118-.05.17-.165.17h-1.546c-.116 0-.165-.052-.165-.17V3.413c0-.12.049-.171.165-.171h1.398c.247 0 .148.343.28.343.198 0 .592-.343 1.349-.343 1.678 0 2.927 1.235 2.927 3.017v4.667c0 .118-.048.17-.163.17zM38.788 11.096h-1.4c-.232 0-.133-.342-.28-.342-.198 0-.594.342-1.335.342-1.71 0-2.944-1.235-2.944-3.035V3.413c0-.12.05-.171.165-.171h1.563c.045-.007.092.009.125.042.032.034.048.082.043.13V8.06c-.011.327.107.643.327.877.22.233.52.362.834.358.316.004.62-.124.843-.357.223-.233.347-.55.342-.878V3.413c0-.12.051-.171.165-.171h1.547c.046-.008.093.007.126.041.034.034.05.082.044.13v7.513c0 .118-.05.17-.165.17zM44.958 3.656c.607.463.97 1.2.97 1.405-.004.062-.042.115-.098.138l-1.35.685c-.025.014-.053.02-.082.019-.066 0-.082-.035-.132-.104-.346-.531-.528-.977-1.2-.977h-.478c-.592 0-.905.22-.905.65 0 .704.905.55 2.255.926 1.332.379 1.958 1.013 1.958 2.144 0 1.611-1.104 2.726-2.83 2.726h-.478c-.92 0-1.628-.275-2.138-.84-.51-.564-.708-1.029-.708-1.183 0-.052.033-.086.098-.12l1.349-.685c.025-.015.054-.02.082-.018.049 0 .083.05.131.12.329.566.543.977 1.185.977h.478c.592 0 .95-.308.95-.737 0-.685-.92-.532-2.27-.892-1.316-.343-1.925-.99-1.925-2.16 0-1.56 1.136-2.657 2.764-2.657h.477c.777 0 1.387.189 1.897.583z" transform="translate(17 17)"/>
            <path d="M18.02 7.768v-1.8c0-1.732-1.234-3.018-2.813-3.018-.707 0-1.12.342-1.317.342-.065 0-.114-.068-.114-.187V.174c.006-.048-.01-.095-.043-.128-.032-.034-.077-.05-.122-.044h-1.547c-.114 0-.164.052-.164.172v10.454c0 .12.05.172.164.172h1.399c.23 0 .132-.343.28-.343.196 0 .575.343 1.317.343 1.71.002 2.96-1.231 2.96-3.032zm-1.892 0c.01.328-.109.646-.33.88-.22.232-.524.36-.839.354-.315.004-.618-.125-.841-.357-.223-.232-.346-.548-.342-.877v-1.8c.02-.663.54-1.19 1.176-1.19.636 0 1.157.527 1.176 1.19v1.8zM24.749 7.94V5.814c0-1.817-1.218-3.036-3.063-3.036-1.845 0-3.074 1.219-3.074 3.036V7.94c0 1.817 1.218 3.034 3.077 3.034 1.858 0 3.06-1.217 3.06-3.034zm-1.892 0c.012.446-.209.865-.578 1.092-.37.227-.828.227-1.197 0-.369-.227-.59-.646-.577-1.092V5.814c-.013-.447.208-.865.577-1.093.37-.227.828-.227 1.197 0 .37.228.59.646.578 1.093V7.94zM31.543 10.802H29.98c-.115 0-.166-.051-.166-.171V5.968c0-.677-.526-1.225-1.175-1.225-.65 0-1.176.548-1.176 1.225v4.663c0 .12-.05.171-.166.171h-1.546c-.115 0-.163-.051-.163-.171V3.12c0-.12.048-.17.163-.17h1.399c.247 0 .147.341.28.341.197 0 .592-.342 1.35-.342 1.676 0 2.928 1.234 2.928 3.018v4.663c0 .12-.051.171-.166.171zM38.584 10.802h-1.399c-.23 0-.13-.343-.278-.343-.198 0-.592.343-1.333.343-1.712 0-2.946-1.233-2.946-3.034V3.122c0-.12.05-.172.165-.172h1.563c.045-.006.09.01.123.044.032.034.047.08.042.128v4.646c-.01.328.109.645.33.879.22.233.523.361.838.355.315.004.619-.124.842-.357.223-.232.346-.548.342-.877V3.122c0-.12.05-.172.166-.172h1.545c.045-.006.09.01.122.044.032.034.048.08.042.128v7.509c0 .12-.048.171-.164.171zM44.753 3.362c.61.462.972 1.2.972 1.405-.005.062-.044.116-.1.139l-1.348.684c-.026.013-.054.019-.082.018-.066 0-.083-.035-.132-.104-.346-.53-.529-.976-1.201-.976h-.478c-.592 0-.904.22-.904.652 0 .702.904.55 2.254.924 1.333.378 1.957 1.012 1.957 2.144 0 1.611-1.101 2.726-2.83 2.726h-.477c-.92 0-1.628-.274-2.138-.84-.51-.55-.708-1.029-.708-1.184 0-.05.034-.086.099-.119l1.35-.685c.025-.014.054-.02.083-.017.048 0 .08.05.13.12.329.566.544.977 1.184.977h.478c.592 0 .95-.309.95-.737 0-.686-.92-.532-2.27-.891-1.315-.344-1.924-.99-1.924-2.16 0-1.56 1.135-2.658 2.763-2.658h.478c.777-.002 1.383.193 1.894.582z" transform="translate(17 17)"/>
        </g>
    </g>
</svg>
