<svg xmlns="http://www.w3.org/2000/svg" width="80" height="45" viewBox="0 0 80 45">
    <g fill="none" fill-rule="evenodd">
        <path fill="#FFF" d="M0 0L80 0 80 45 0 45z"/>
        <g fill="#000E78">
            <path fill-rule="nonzero" d="M10.666 12.893L7.321 9.39 7.321 12.893 4.993 12.893 4.993 9.39 1.646 12.893 0 11.17 3.345 7.665 0 7.665 0 5.228 3.345 5.228 0 1.724 1.646 0 4.993 3.503 4.993 0 7.321 0 7.321 3.503 10.666 0 12.313 1.724 8.967 5.228 12.313 5.228 12.313 7.665 8.967 7.665 12.313 11.17z" transform="translate(11 16)"/>
            <path fill-rule="nonzero" d="M10.666 12.893L7.321 9.39 7.321 12.893 4.993 12.893 4.993 9.39 1.646 12.893 0 11.17 3.345 7.665 0 7.665 0 5.228 3.345 5.228 0 1.724 1.646 0 4.993 3.503 4.993 0 7.321 0 7.321 3.503 10.666 0 12.313 1.724 8.967 5.228 12.313 5.228 12.313 7.665 8.967 7.665 12.313 11.17z" transform="translate(11 16)"/>
            <path d="M17.862 3.279c-.377-.166-.783-.247-1.192-.239-1.617 0-2.8 1.136-2.8 2.844 0 1.765 1.115 2.892 2.792 2.892.41.013.819-.054 1.205-.198l-.045-.771c-.268.167-.774.27-1.153.27-1.1 0-1.996-.866-1.996-2.169 0-1.247.813-2.17 2.034-2.17.385-.002.764.105 1.096.31l.059-.77zM21.685 6.632H19.58l1.055-2.75 1.05 2.75zM18.002 8.68h.797l.535-1.403h2.596l.535 1.403h.827l-2.231-5.545h-.803L18.002 8.68zM24.434 3.834h.731c.699 0 1.063.318 1.063.82 0 .532-.425.864-1.146.864h-.645l-.003-1.684zm-.759 4.847h.76V6.218h.454c.402 0 .661 0 .889.54l.811 1.923h.865l-1.001-2.21c-.16-.348-.281-.459-.516-.56v-.017c.615-.11 1.093-.587 1.093-1.262 0-1.327-1.01-1.5-2.056-1.5h-1.299V8.68zM28.574 3.834h.888c1.093 0 1.935.763 1.935 2.059 0 1.43-.721 2.09-2.026 2.09h-.797V3.833zm-.759 4.847h1.564c1.74 0 2.823-.961 2.823-2.82 0-1.709-1.252-2.725-2.823-2.725h-1.564V8.68z" transform="translate(11 16)"/>
            <path fill-rule="nonzero" d="M37.788 3.213L39.204 3.213 39.204 8.776 37.788 8.776z" transform="translate(11 16)"/>
            <path d="M39.734 8.776L41.036 8.776 40.991 4.974 41.006 4.974 42.862 8.776 44.621 8.776 44.621 3.213 43.327 3.213 43.349 6.991 43.335 6.991 41.538 3.213 39.734 3.213zM32.741 8.776L34.647 8.776 34.647 5.813 37.263 5.813 37.263 4.378 34.647 4.378 34.647 2.829 39.11 2.829 39.11 1.394 32.741 1.394zM48.39 6.536h-1.332l.686-2.175h.015l.631 2.175zM44.874 8.78h1.44l.418-1.186h1.992l.401 1.186h1.553L48.63 3.217h-1.74L44.874 8.78zM50.947 8.776L52.248 8.776 52.203 4.974 52.217 4.974 54.075 8.776 55.833 8.776 55.833 3.213 54.54 3.213 54.562 6.991 54.546 6.991 52.75 3.213 50.947 3.213zM56.277 8.633c.514.159 1.048.24 1.584.238 1.18 0 2.337-.39 2.337-1.831 0-2.01-2.513-1.402-2.513-2.304 0-.487.595-.52.952-.52.393-.003.781.084 1.138.256.072-.71.134-1.147.134-1.147-.444-.143-.907-.213-1.371-.208-1.07 0-2.313.368-2.313 1.707 0 2.024 2.511 1.37 2.511 2.407 0 .446-.426.54-.875.54-.509.005-1.01-.12-1.462-.365l-.122 1.227z" transform="translate(11 16)"/>
        </g>
    </g>
</svg>
