<svg xmlns="http://www.w3.org/2000/svg" width="80" height="45" viewBox="0 0 80 45">
    <g fill="none" fill-rule="evenodd">
        <path fill="#FFF" d="M0 0L80 0 80 45 0 45z"/>
        <path fill="#7F7F7F" d="M68.013 33.54c.395.004.717.12.966.349.25.228.372.527.367.897l-.81-.003c.005-.18-.042-.322-.14-.424-.1-.102-.235-.155-.408-.16-.181 0-.337.047-.467.14-.13.094-.205.217-.225.368-.033.219.114.37.44.456.327.085.568.164.725.236.455.21.674.536.658.98-.012.248-.09.464-.233.648-.143.183-.336.324-.577.421-.145.059-.295.098-.45.119l-.053.004-.052.171c.142.034.25.102.322.204.073.102.108.229.105.38-.004.262-.109.464-.313.607-.205.143-.499.222-.883.236l.007-.508c.315-.014.49-.13.528-.346.02-.144-.064-.232-.252-.263l-.193-.022.15-.478-.016-.002c-.262-.052-.49-.164-.68-.338-.268-.243-.4-.554-.395-.933l.79.003c.004.21.064.368.179.476.114.108.272.163.472.166.202 0 .37-.044.505-.132.134-.087.213-.208.236-.362.039-.238-.109-.403-.443-.496l-.299-.086-.228-.074c-.064-.022-.117-.043-.157-.061-.474-.212-.702-.534-.686-.966.011-.351.164-.641.457-.87.293-.23.644-.342 1.053-.338zm-49.853 0c.236.002.442.065.617.189.174.123.308.303.401.538.093.236.143.498.15.786.002.147-.006.32-.024.523-.046.39-.145.742-.298 1.06-.153.317-.347.556-.583.719-.235.162-.499.24-.79.232-.39-.01-.695-.154-.918-.432l-.334 1.856h-.82l.896-5.4.748-.003-.062.403c.285-.324.624-.481 1.017-.472zM8.443 32.19c.499.01.894.174 1.184.492.291.319.445.758.464 1.318h-.845c-.011-.375-.086-.646-.225-.813-.14-.167-.346-.254-.619-.261-.375-.012-.688.128-.94.421-.254.293-.424.72-.511 1.28l-.069.48-.031.367c-.018.247-.002.48.05.697.052.218.143.384.274.498.131.114.298.175.5.182.64.026 1.052-.322 1.234-1.046l.84-.007c-.084.548-.32.985-.706 1.31-.386.326-.856.484-1.41.474-.319-.007-.599-.086-.839-.237-.24-.152-.428-.372-.563-.662-.136-.29-.212-.617-.228-.982-.014-.274.018-.647.097-1.12.078-.471.228-.895.45-1.27.221-.375.493-.657.816-.847.323-.19.682-.28 1.077-.274zm40.944 1.348c.406.01.723.138.95.384.228.246.323.565.284.957l-.287 1.828-.027.324c-.007.142.01.28.052.414l-.004.065h-.81c-.027-.096-.039-.217-.034-.364-.308.3-.64.446-.996.436-.324-.004-.593-.113-.805-.326-.213-.212-.312-.482-.298-.809.018-.41.188-.734.51-.97.321-.235.753-.353 1.296-.353l.53.007.049-.266c.014-.094.014-.182 0-.263-.046-.26-.21-.393-.493-.4-.175-.005-.328.041-.46.138-.132.098-.213.228-.243.391l-.817.008c.016-.24.098-.452.245-.633s.342-.323.586-.424c.243-.1.5-.148.772-.144zm24.106 0c.406.01.724.138.951.384.228.246.322.565.283.957l-.286 1.828-.028.324c-.007.142.01.28.052.414l-.004.065h-.81c-.027-.096-.039-.217-.034-.364-.308.3-.64.446-.996.436-.324-.004-.593-.113-.805-.326-.213-.212-.312-.482-.298-.809.018-.41.188-.734.51-.97.322-.235.754-.353 1.296-.353l.53.007.049-.266c.014-.094.014-.182 0-.263-.046-.26-.21-.393-.493-.4-.175-.005-.328.041-.46.138-.132.098-.213.228-.243.391l-.817.008c.016-.24.098-.452.245-.633s.342-.323.586-.424c.243-.1.5-.148.772-.144zm-9.785.072l-.407 2.534c-.01.09-.01.176-.004.26.023.298.167.453.431.465.361.014.653-.137.876-.454l.468-2.805h.817l-.644 3.9h-.765l.072-.385c-.283.314-.636.467-1.062.457-.24-.004-.441-.067-.601-.187-.16-.12-.273-.288-.341-.503-.068-.215-.088-.468-.06-.759l.403-2.523h.817zm-41.667-1.42c.213.007.406.06.579.159.172.098.304.235.396.409.092.174.132.366.12.575-.01.216-.077.419-.198.607-.12.189-.316.382-.587.579l-.417.288.737 1.168c.191-.298.31-.62.359-.966l.7-.004c-.056.654-.267 1.189-.635 1.604l.555.901h-.89l-.21-.342c-.404.283-.835.42-1.292.41-.43-.004-.78-.14-1.051-.406-.271-.267-.394-.617-.369-1.05.028-.437.269-.824.724-1.16l.393-.27c-.14-.27-.233-.489-.28-.658-.045-.17-.064-.33-.054-.481.027-.409.172-.74.434-.995s.59-.377.986-.368zm20.342 1.348c.363.01.632.14.808.391.176.251.242.603.198 1.055l-.403 2.526h-.817l.407-2.534c.011-.105.013-.203.003-.291-.036-.282-.206-.426-.51-.433-.337-.01-.604.184-.8.58l-.01.08-.427 2.598h-.82l.406-2.523c.012-.103.013-.2.004-.288-.037-.29-.207-.44-.51-.447-.306-.005-.561.138-.766.429l-.472 2.83h-.817l.645-3.9.765-.004-.072.414c.308-.331.675-.492 1.103-.483.234.005.429.062.584.17.155.108.26.25.315.429.345-.409.74-.608 1.186-.599zm-26.836.072l-.648 3.9h-.817l.648-3.9h.817zm55.895-1.636l-.92 5.536h-.817l.92-5.536h.817zm-59.52 0l-.38 2.065c.31-.34.663-.507 1.058-.497.354.005.616.136.788.393.17.257.235.613.19 1.067l-.399 2.508h-.817l.407-2.52c.011-.102.014-.199.007-.287-.03-.294-.195-.444-.496-.451-.304-.005-.575.151-.814.469l-.465 2.79h-.817l.917-5.537h.82zm50.83.288L62.63 33h-1.517l-.748 4.512h-.848L60.268 33h-1.506l.124-.736h3.867zM47.23 33.611l-.1.595-2.258 2.606h1.896l-.117.7h-2.94l.103-.617 2.234-2.577h-1.775l.12-.707h2.837zm9.21 0l-.648 3.9h-.817l.648-3.9h.817zm-26.399 0l-.648 3.9h-.817l.648-3.9h.817zm23.455-.072c.35.008.608.138.776.391.167.254.23.608.186 1.062l-.404 2.52h-.816l.406-2.53c.012-.104.013-.2.004-.29-.03-.285-.193-.432-.49-.439-.31-.005-.582.155-.817.48l-.465 2.778h-.817l.645-3.9.768-.003-.082.458c.32-.36.688-.536 1.106-.527zm-15.758-1.276l-.872 5.248h-.848l.872-5.248h.848zm-5.005 1.276c.35.008.608.138.776.391.167.254.23.608.186 1.062l-.403 2.52h-.817l.406-2.53c.012-.104.013-.2.004-.29-.03-.285-.193-.432-.49-.439-.31-.005-.582.155-.816.48l-.466 2.778h-.817l.645-3.9.769-.003-.083.458c.32-.36.688-.536 1.106-.527zm-7.669-1.276l1.737.004c.524 0 .936.15 1.234.449.3.299.429.695.39 1.187-.042.51-.24.914-.596 1.213-.357.3-.823.449-1.4.449l-1.061-.004-.324 1.95h-.852l.872-5.248zm-7.165 1.99c-.308-.01-.575.138-.8.443l-.29 1.741c.104.291.314.441.631.45.271.008.5-.103.684-.33.185-.23.31-.581.374-1.057l.018-.263c.006-.31-.042-.55-.147-.72-.104-.172-.261-.26-.47-.264zm31.399 1.424c-.308 0-.554.06-.738.182-.183.121-.288.287-.313.499-.019.16.015.288.101.38.087.093.206.141.357.146.172.005.332-.036.48-.124.146-.088.272-.201.375-.34l.127-.74-.389-.003zm24.106 0c-.308 0-.554.06-.737.182-.184.121-.289.287-.314.499-.018.16.015.288.102.38.086.093.205.141.356.146.173.005.332-.036.48-.124.11-.066.208-.146.293-.241l.082-.1.128-.739-.39-.003zm-52.086-.436l-.117.079c-.315.23-.492.489-.531.775-.028.23.018.418.138.562.12.144.288.219.506.224.157.002.304-.028.441-.09.138-.063.272-.136.4-.22l-.837-1.33zm4.474-2.242l-.304 1.83.976.008c.308 0 .56-.082.756-.245.197-.164.314-.392.353-.685.033-.267-.015-.481-.143-.643-.127-.163-.32-.25-.577-.262L25.791 33zm-3.799-.108c-.165 0-.305.063-.42.189-.115.126-.182.275-.2.448-.023.166.02.36.13.58l.08.152.341-.223c.297-.197.459-.423.486-.678.014-.137-.02-.25-.103-.337-.083-.088-.187-.131-.314-.131zm-6.686-.765c.133-.004.244.038.332.128.089.09.133.2.133.33 0 .137-.043.25-.13.339-.085.089-.195.136-.328.14-.131.005-.242-.036-.331-.124-.09-.088-.135-.196-.135-.326 0-.132.042-.245.124-.339.083-.094.195-.143.335-.148zm14.493 0c.133-.004.244.038.333.128.088.09.132.2.132.33 0 .137-.043.25-.129.339-.086.089-.196.136-.329.14-.131.005-.241-.036-.33-.124-.09-.088-.135-.196-.135-.326 0-.132.041-.245.124-.339.082-.094.194-.143.334-.148zm7.645-1.175c.126-.004.232.035.317.118.085.082.127.189.127.318 0 .137-.04.247-.122.328-.081.082-.185.125-.312.13-.124.005-.229-.034-.315-.117s-.13-.187-.13-.312c0-.134.041-.244.123-.33.081-.085.185-.13.312-.135zM54.562 7c.353 0 .692.147.941.408.214.224.348.517.382.83l.008.157v16.893c0 .37-.14.726-.389.988-.214.224-.494.365-.792.4l-.15.009H26.165c-.353 0-.692-.148-.942-.41-.213-.224-.347-.517-.38-.83l-.009-.157V8.395c0-.725.528-1.32 1.203-1.389L26.165 7h28.397zm-.865 2.302H27.03v15.079h26.667V9.301zm-7.338 3.76c1.019-.005 1.859.814 1.943 1.861l.007.152v3.543c-.012 1.067-.806 1.933-1.806 2.005l-.144.005h-11.99c-1.02.005-1.86-.814-1.944-1.862l-.007-.151V15.07c.013-1.066.807-1.932 1.807-2.005l.144-.005h11.99zm-1.404 1.937c-.522 0-.95.413-1.006.944l-.006.116v.507h-.052c-.181-.001-.334.133-.371.312l-.009.08v1.32c.003.191.133.349.305.385l.075.007h2.129c.182.001.335-.133.37-.31l.008-.08v-1.322c-.003-.19-.133-.348-.305-.384l-.076-.007h-.051v-.508c0-.586-.453-1.06-1.011-1.06zm-8.688.144h-.995l.09.7c.016.127.052.32.107.58l-.352-.211-.139-.076-.626-.293-.324.978.698.118c.226.043.408.07.546.083-.098.075-.192.155-.283.24l-.132.13-.506.525.834.627.337-.627c.088-.17.166-.346.236-.525l.175.407.058.118.333.627.811-.627-.468-.525c-.126-.132-.258-.253-.4-.363.127-.002.253-.01.378-.024l.187-.026.693-.152-.31-.978-.749.361-.314.172-.079.04c.035-.125.064-.254.086-.383l.028-.195.08-.7zm4.59.001h-.994l.089.7c.015.126.052.319.108.579l-.352-.211-.138-.076-.627-.293-.324.978.699.118c.224.043.407.07.545.083-.098.075-.192.154-.283.24l-.132.13-.506.525.834.626.338-.626c.087-.17.165-.346.235-.525l.175.407.058.118.333.626.811-.626-.471-.526c-.123-.131-.255-.252-.396-.362.126-.002.252-.01.377-.024l.187-.026.694-.152-.31-.978-.75.361-.078.042-.089.051c-.037.022-.112.06-.226.12.035-.127.063-.255.085-.384l.028-.195.08-.7z"/>
    </g>
</svg>
