<svg xmlns="http://www.w3.org/2000/svg" width="80" height="45" viewBox="0 0 80 45">
    <g fill="none" fill-rule="evenodd">
        <path fill="#FFF" d="M0 0L80 0 80 45 0 45z"/>
        <g fill-rule="nonzero">
            <path fill="#E1001A" d="M.003 7.828C.138 3.518 3.896 0 8.4 0c4.503 0 7.99 3.518 7.781 7.828-.202 4.266-3.95 7.698-8.387 7.698S-.124 12.09.004 7.828z" transform="translate(27 14)"/>
            <path fill="#F9BA00" d="M19.211 0c4.503 0 7.947 3.52 7.696 7.828-.25 4.266-4.043 7.698-8.474 7.698-1.934 0-3.677-.635-5.015-1.718l-.231-.196c.146-.125.292-.254.438-.388h-.82c-.129-.138-.2-.215-.264-.292h1.389c.184-.202.38-.417.544-.635h-2.433c-.066-.1-.137-.202-.199-.301h2.868c.146-.205.292-.422.414-.639h-3.637c-.047-.096-.097-.195-.14-.3h3.94c.106-.21.21-.41.293-.628h-4.478c-.032-.101-.068-.203-.097-.301h4.708c.075-.208.146-.413.205-.628H14.65l.064-.301h1.277c.048-.212.086-.414.117-.63h-1.237l.087-.302h1.188c.015-.15.03-.29.035-.436.018-.382.007-.764-.032-1.144h-5.267c.018-.098.031-.195.053-.292h5.175c-.031-.223-.063-.434-.113-.65h-4.884c.033-.1.081-.2.116-.3h4.682c-.06-.22-.138-.43-.217-.641h-4.197c.047-.103.111-.205.162-.302h3.902c-.097-.219-.204-.433-.322-.64h-3.204c.063-.102.146-.201.21-.302h2.813c-.142-.228-.296-.447-.461-.658h-1.84c.087-.104.206-.203.294-.3h1.29c-.2-.224-.413-.436-.637-.634l.003-.002C15.271.686 17.213-.008 19.211 0zm-7.757 8.261c-.042.18-.063.375-.063.573h-.76l.092-.573h.731z" transform="translate(27 14)"/>
            <path fill="#FFF" d="M11.327 6.389l-.193.737h.427l-.167.602h-.408l-.269 1.123c-.048.214-.037.407.42.339l-.073.561c-.182.094-.383.14-.585.134-.182 0-.773-.105-.586-.86l.644-2.636h.79zm-4.791.687c1.269 0 1.168.838 1.074 1.24l-.012.05-.37 1.506h-.732l-.095-.15c-.145.096-.257.144-.661.163-.404.02-.909-.27-.797-.84.263-1.162 1.67-.948 1.872-.968.108-.416-.197-.377-.47-.388-.219.008-.438.023-.656.046l-.327.041.147-.602c.333-.065.68-.097 1.027-.098zM19.9 7.075c1.262 0 1.15.84 1.05 1.242l-.012.05-.392 1.505h-.732l-.094-.15c-.146.096-.257.144-.662.163-.406.02-.904-.27-.786-.84.277-1.162 1.684-.948 1.886-.968.114-.416-.192-.377-.464-.388-.22.008-.439.023-.657.047l-.328.04.147-.602c.35-.067.696-.099 1.044-.099zm-10.737 0c.263-.016.526.02.774.11l-.205.563c-.255-.047-.516-.06-.775-.035-.297.078-.186.34-.026.407.19.087.375.188.553.3.147.088.324.272.244.678-.145.733-.89.782-1.196.783h-.329c-.232-.008-.463-.04-.69-.097l.133-.578c.388.127.915.068 1.036.068.103.011.198-.055.227-.157.029-.102-.017-.211-.11-.258-.158-.077-.33-.194-.623-.32-.185-.078-.372-.29-.242-.805.172-.67 1.118-.659 1.23-.659zm3.681.012c1.33 0 1.142 1.014 1.027 1.495l-.014.057-1.718.007c-.101.54.264.596.567.602h.134c.199 0 .397-.01.595-.03l.296-.037-.146.57c-.197.097-.682.134-1.014.125-1.362 0-1.29-1.227-1.253-1.401.038-.175.252-1.388 1.526-1.388zm3.112.04l-.246.717h-.079c-.201.002-.508.055-.744.775l-.293 1.257h-.793l.658-2.75h.678l.058.273c.207-.194.482-.293.761-.273zm10.146-.778l-.888 3.527h-.847l-.088-.222c-.211.131-.45.208-.698.222-.564 0-1.043-.764-.74-1.604.454-1.262 1.122-1.185 1.561-1.185.333 0 .431.177.552.292l.046.04.273-1.07h.829zm-23.19.175l.083 2.038 1.03-2.038H5.32l-.775 3.352h-.817l.546-2.361-1.182 2.361h-.746l-.132-2.419-.563 2.42H.864l.784-3.353h1.264zm14.855-.164c.647.024.868.233 1.06.452l-.536.489c-.182-.107-.391-.154-.6-.136-.497.044-.908.418-1.01.922-.169.803.387 1.204 1.208.939l.197.676c-.306.129-.635.188-.965.174-.817 0-1.673-.695-1.202-2.107.266-.823 1.005-1.387 1.848-1.409zm5.267.766l-.241.729c-.192 0-.564-.059-.839.764l-.31 1.257h-.785l.68-2.75h.676l.057.273c.207-.195.482-.293.762-.273zm-3.72 1.58c-.26.165-.346.452-.088.552.257.099.629-.067.692-.32l.076-.299c-.13-.02-.42-.096-.68.068zm-13.325 0c-.26.165-.34.452-.08.552.258.099.627-.067.687-.32l.071-.299c-.13-.02-.42-.096-.678.068zm17.652-.29c-.133.396.092.697.365.697.272 0 .487-.223.648-.561.093-.252.068-.566-.014-.678-.225-.311-.795-.064-.999.542zm-10.78-.79c-.307-.02-.58.222-.649.571h.979c.064-.308-.018-.571-.33-.571z" transform="translate(27 14)"/>
        </g>
    </g>
</svg>
