<svg xmlns="http://www.w3.org/2000/svg" width="80" height="45" viewBox="0 0 80 45">
    <g fill="none" fill-rule="evenodd">
        <path fill="#FFF" d="M0 0L80 0 80 45 0 45z"/>
        <path fill="#7F7F7F" d="M42.416 33.569c.404.01.727.15.968.42s.362.623.362 1.056h-.765c0-.224-.052-.407-.157-.549-.104-.142-.256-.218-.453-.227-.32-.01-.571.132-.755.426-.184.293-.283.707-.296 1.24-.016.648.197.976.64.986.196.005.369-.055.52-.179.15-.124.246-.285.287-.485l.772-.004c-.025.258-.114.492-.267.704-.153.212-.349.377-.587.494-.24.118-.489.174-.748.166-.32-.004-.592-.091-.817-.26-.225-.168-.39-.4-.493-.698-.104-.297-.138-.628-.104-.994l.01-.126c.04-.378.145-.72.316-1.027.171-.306.392-.543.664-.709.27-.166.572-.244.903-.234zm-3.709 0c.466.01.816.191 1.05.545.233.353.32.814.263 1.382l-.048.375h-2.347c-.02.31.039.56.179.75.14.19.333.288.579.293.352.012.676-.148.972-.48l.414.455c-.157.233-.362.414-.617.543-.255.128-.535.19-.838.185-.324-.007-.605-.092-.843-.256-.237-.163-.413-.387-.527-.67-.114-.285-.157-.601-.13-.95l.011-.148c.041-.397.152-.753.333-1.07.18-.316.405-.556.674-.72.268-.163.56-.241.875-.234zm-3.716-1.35c.313.007.591.079.835.215.243.136.43.325.558.566.129.242.188.518.18.829l-.849-.004c.016-.274-.042-.487-.174-.639-.132-.151-.331-.23-.598-.238-.269-.005-.496.061-.68.199-.185.137-.294.322-.326.555-.046.306.15.546.586.722l.258.097c.526.198.894.43 1.103.695.21.266.301.58.276.944-.023.296-.116.554-.28.774-.162.22-.388.39-.677.51-.288.12-.606.178-.953.173-.328-.002-.626-.074-.894-.216-.268-.142-.473-.339-.615-.59-.143-.251-.208-.537-.197-.857l.852.004c-.019.298.051.528.21.689.158.16.386.244.682.249.276.005.506-.057.691-.184.185-.128.296-.31.333-.545.05-.347-.13-.604-.541-.772l-.28-.109c-.519-.19-.887-.415-1.106-.674-.218-.26-.317-.562-.296-.906.018-.298.115-.561.291-.789.176-.227.407-.402.695-.525.287-.122.593-.18.916-.173zm-17.984 1.35c.406.01.723.138.951.384.227.247.322.566.283.958l-.286 1.83-.028.324c-.007.142.01.28.052.415l-.004.065h-.81c-.027-.096-.039-.217-.034-.364-.308.3-.64.446-.996.436-.324-.004-.593-.113-.805-.326-.213-.213-.312-.483-.298-.81.018-.412.188-.735.51-.97.322-.237.753-.355 1.296-.355l.53.008.049-.267c.014-.094.014-.182 0-.264-.046-.26-.21-.393-.493-.4-.175-.005-.328.041-.46.139-.132.097-.213.228-.243.391l-.817.007c.016-.24.098-.451.245-.633s.342-.323.586-.424c.243-.1.5-.149.772-.144zm44.152-1.35c.496.01.892.19 1.187.538.295.349.457.82.484 1.414.014.299-.012.64-.077 1.027-.066.386-.178.74-.338 1.064-.16.324-.358.594-.594.81-.41.376-.886.557-1.43.545-.327-.007-.614-.089-.86-.245-.248-.156-.44-.383-.578-.68-.138-.297-.216-.635-.234-1.012-.017-.301.01-.652.077-1.054.068-.402.188-.768.362-1.099.173-.33.38-.6.622-.81.398-.341.857-.507 1.379-.498zm-4.53 0c.5.01.894.174 1.185.493.29.319.445.758.463 1.319h-.844c-.012-.376-.087-.647-.226-.814-.139-.167-.345-.254-.619-.262-.374-.012-.688.13-.94.423-.253.293-.423.72-.51 1.28l-.07.48-.03.369c-.019.247-.002.48.05.698.051.217.142.383.273.498.131.114.298.175.5.182.641.026 1.053-.322 1.234-1.047l.841-.007c-.085.549-.32.986-.706 1.312-.386.326-.856.484-1.41.474-.32-.007-.6-.086-.84-.238-.24-.151-.427-.372-.563-.662-.136-.29-.211-.618-.227-.983-.014-.274.018-.648.096-1.12.078-.473.228-.897.45-1.273.222-.375.494-.657.817-.847.323-.19.682-.282 1.077-.275zm-36.014 1.35c.396.005.718.121.967.35.25.228.372.528.367.898l-.81-.003c.005-.18-.042-.322-.141-.424-.099-.103-.234-.156-.407-.16-.181 0-.337.046-.467.14-.13.094-.205.216-.226.368-.032.219.115.371.442.456.326.086.567.165.723.237.455.209.675.536.659.981-.012.248-.09.464-.233.648-.144.184-.336.325-.577.422-.242.098-.498.143-.769.135-.407-.004-.744-.128-1.011-.371-.268-.243-.4-.555-.395-.935l.79.004c.004.21.064.368.178.476.115.108.273.164.473.166.202 0 .37-.044.505-.132.134-.087.213-.208.236-.362.039-.238-.109-.404-.443-.496l-.3-.087-.227-.074c-.064-.022-.117-.043-.157-.061-.474-.212-.702-.534-.686-.967.011-.352.163-.642.456-.872.293-.23.644-.342 1.053-.337zm24.8.072l-.407 2.537c-.01.089-.01.175-.004.26.023.298.167.453.431.465.36.014.653-.137.875-.455l.47-2.807h.816l-.644 3.904h-.766l.073-.386c-.283.315-.637.468-1.062.458-.241-.004-.442-.067-.601-.187-.16-.12-.274-.288-.342-.504-.067-.215-.087-.468-.06-.76l.403-2.525h.817zm6.834-.072c.467.01.816.191 1.05.545.233.353.32.814.263 1.382l-.048.375h-2.347c-.02.31.039.56.179.75.14.19.333.288.58.293.35.012.675-.148.971-.48l.414.455c-.157.233-.362.414-.617.543-.255.128-.535.19-.838.185-.324-.007-.605-.092-.843-.256-.237-.163-.413-.387-.527-.67-.114-.285-.157-.601-.13-.95l.011-.148c.042-.397.152-.753.333-1.07.18-.316.405-.556.674-.72.268-.163.56-.241.875-.234zm-25.598 0c.466.01.816.191 1.049.545.233.353.321.814.264 1.382l-.049.375h-2.347c-.02.31.04.56.18.75.14.19.333.288.579.293.351.012.675-.148.971-.48l.414.455c-.156.233-.362.414-.617.543-.255.128-.534.19-.837.185-.324-.007-.605-.092-.843-.256-.238-.163-.414-.387-.527-.67-.114-.285-.157-.601-.13-.95l.01-.148c.042-.397.153-.753.333-1.07.18-.316.405-.556.674-.72.269-.163.56-.241.876-.234zm-2.565-.877l-.158.949h.637l-.107.65h-.64l-.352 2.186c-.007.06-.008.114-.004.163.014.156.106.238.276.245.085 0 .182-.01.29-.033l-.056.686c-.17.05-.34.076-.513.076-.285-.005-.498-.107-.64-.305-.14-.199-.197-.461-.167-.789L23 34.29h-.596l.11-.649h.593l.159-.949h.82zm6.411.87c.076 0 .18.018.314.054l-.093.826c-.106-.024-.213-.036-.32-.036-.36-.01-.644.145-.856.465l-.448 2.674h-.817l.645-3.904.775-.004-.082.444c.255-.353.549-.527.882-.52zm19.515 0c.076 0 .18.018.314.054l-.093.826c-.106-.024-.213-.036-.32-.036-.36-.01-.644.145-.856.465l-.448 2.674h-.816l.644-3.904.776-.004-.083.444c.255-.353.549-.527.882-.52zm14.08-1.27l1.358.003c.418 0 .778.109 1.08.327.303.217.521.518.657.902.136.383.177.806.124 1.268l-.038.285c-.069.484-.221.912-.456 1.286-.236.375-.54.665-.912.872-.372.207-.781.31-1.227.31h-1.455l.869-5.254zm-53.138 0l.734 4.02 2.065-4.02h1.117L14 37.544h-.848l.293-1.779.445-2.19-2.068 3.97h-.614l-.768-4.09-.314 2.404-.28 1.685H9l.872-5.254h1.082zm60.814 0l-.124.736H69.33l-.241 1.45h2.002l-.12.722h-2l-.268 1.616h2.336l-.12.73h-3.188l.868-5.255h3.168zm-54.851 3.417c-.308 0-.554.06-.738.182-.183.121-.288.288-.313.5-.019.16.015.288.101.38.087.093.206.142.357.146.173.005.332-.036.48-.124.146-.088.272-.202.375-.341l.128-.74-.39-.003zm44.197-2.736c-.29-.01-.546.076-.77.257-.224.18-.406.454-.545.822-.139.368-.22.83-.243 1.386-.023.44.041.787.193 1.04.152.252.38.383.683.392.397.013.725-.144.984-.469.258-.324.428-.781.508-1.37l.034-.253.031-.383c.014-.262-.008-.504-.065-.727-.058-.222-.155-.392-.291-.509-.137-.116-.31-.178-.519-.186zm3.709.055l-.628 3.788.504.004c.454 0 .832-.151 1.132-.453.3-.302.492-.719.577-1.25.06-.366.082-.685.066-.956-.021-.35-.118-.622-.292-.82-.173-.197-.414-.3-.722-.31l-.637-.003zm-12.619 1.24c-.432-.014-.756.306-.972.96l1.548.004.014-.076c.016-.11.017-.218.003-.324-.025-.171-.09-.306-.193-.404-.103-.099-.237-.152-.4-.16zm-13.542 0c-.432-.014-.756.306-.972.96l1.548.004.014-.076c.016-.11.017-.218.003-.324-.025-.171-.09-.306-.193-.404-.103-.099-.237-.152-.4-.16zm-12.056 0c-.432-.014-.756.306-.972.96l1.547.004.014-.076c.016-.11.017-.218.004-.324-.026-.171-.09-.306-.193-.404-.104-.099-.237-.152-.4-.16zM54.593 7c.692 0 1.26.554 1.325 1.262l.006.134v16.912c0 .37-.14.727-.389.989-.218.23-.505.371-.81.403l-.132.007H26.196c-.353 0-.692-.148-.941-.41-.214-.225-.348-.519-.381-.831l-.008-.158V8.396c0-.725.527-1.322 1.202-1.39L26.196 7h28.397zm-.865 2.305H27.06V24.4h26.667V9.304zm-10.16 2.697c2.494 0 4.515 2.12 4.515 4.737 0 2.616-2.021 4.737-4.514 4.737-1.045 0-2.055-.39-2.852-1.097-.788.69-1.782 1.066-2.81 1.062-2.473 0-4.478-2.104-4.478-4.7 0-2.595 2.006-4.7 4.48-4.7 1.023 0 2.015.375 2.803 1.062.797-.712 1.81-1.102 2.857-1.101zm.005 1.017c-.795 0-1.567.288-2.184.815 1.272 1.706 1.273 4.102.003 5.81.617.525 1.387.812 2.181.813 1.938-.03 3.494-1.686 3.494-3.72 0-2.033-1.556-3.69-3.494-3.718z"/>
    </g>
</svg>
