<svg xmlns="http://www.w3.org/2000/svg" width="80" height="45" viewBox="0 0 80 45">
    <g fill="none" fill-rule="evenodd">
        <path fill="#FFF" d="M0 0L80 0 80 45 0 45z"/>
        <path fill="#EB008B" d="M15 26.287l.73-5.072c.06-.41.383-1.162.887-1.574.546-.456 1.229-.704 1.932-.702.781 0 1.24.196 1.502.345.16.088.305.2.433.33.19-.169.406-.303.64-.396.44-.208.921-.306 1.405-.288.688 0 1.33.227 1.609.51.28.284.373.454.48.946.033.29.027.583-.017.872l-.714 5.025h-1.813s.634-4.44.669-4.697c.034-.256.106-.794-.069-1.028-.175-.235-.487-.297-.725-.28-.238.018-.73.093-.862.899-.131.806-.747 5.111-.747 5.111h-1.808s.661-4.62.691-4.863c.03-.243.073-.82-.245-1.03-.318-.208-.892-.16-1.125.172-.234.331-.285.491-.365.997-.08.506-.674 4.723-.674 4.723H15zm13.88-3.53s-.398.026-.687.053c-.444.031-.881.128-1.298.287-.483.157-.805.623-.79 1.142 0 .438.237.924 1.002.976.765.051 1.476-.453 1.476-.453l.298-2.005zm-2.979-3.142s.534-.392 1.876-.601c1.342-.21 1.813.052 2.41.504.598.453.601 1.244.528 1.74-.074.496-.586 4.106-.586 4.106l-.459.366c-.568.427-1.35.657-2.292.749-.943.092-2.156-.166-2.615-1.23-.459-1.063-.187-2.409 1.087-3.076 1.274-.667 3.192-.627 3.192-.627s.144-.593-.17-.876c-.35-.321-.713-.22-1.503-.087-.573.113-1.133.287-1.671.518l.203-1.486zm7.216-2.114c.154-.75.702-1.36 1.224-1.36.521 0 .821.61.667 1.36-.153.75-.7 1.36-1.223 1.36-.524 0-.822-.609-.668-1.36zm-2.632 7.886s2.11-2.97 2.152-3.034c.051-.107.051-.233 0-.34-.059-.11-1.341-2.362-1.405-2.49-.064-.126-.144-.374-.029-.87.115-.496.415-.645.552-.667.136-.022.266.03.426.28.16.248 1.437 2.225 1.488 2.313.05.087.145.11.213.007.068-.102 2.695-3.803 2.821-3.983.127-.18.45-.536.761-.584.31-.048.543-.009.76.158.255.208.393.534.364.867-.038.357-.229.666-.533 1.063-.304.396-3.06 3.84-3.133 3.923-.064.094-.085.21-.059.322.016.11.191.344.254.438.063.094 1.719 2.63 1.719 2.63l.886-6.263h1.707l-1.01 7.139h-1.002l.888 1.356-1.75 1.424s-2.835-5.078-2.88-5.148c-.045-.07-.107-.18-.245 0-.14.18-2.347 2.976-2.347 2.976l-.598-1.517zm8.592.897l.73-5.072c.06-.411.382-1.16.887-1.574.547-.456 1.231-.703 1.935-.699.782 0 1.24.196 1.503.345.158.089.303.2.43.33.188-.169.405-.303.64-.396.44-.208.92-.306 1.404-.288.688 0 1.328.227 1.609.51.28.284.373.454.48.946.033.291.027.586-.017.876-.075.515-.715 5.025-.715 5.025H46.15s.64-4.444.67-4.7c.03-.257.106-.795-.069-1.03-.175-.234-.487-.296-.725-.278-.238.017-.73.092-.862.898-.131.806-.747 5.111-.747 5.111H42.61s.662-4.62.691-4.863c.03-.243.076-.824-.244-1.03-.32-.206-.89-.161-1.124.17-.234.332-.285.492-.365.998-.08.506-.675 4.724-.675 4.724l-1.815-.003zm10.582-7.12h1.8l-.717 5.021c-.05.349-.017.898.297 1.055.313.157.823.131 1.036-.06.212-.192.407-.385.517-.995.11-.61.74-5.03.74-5.03h1.779s-.603 4.307-.671 4.83c-.069.522-.314 1.404-.854 1.848-.54.443-1.142.672-2.556.672-1.413 0-1.969-.876-2.054-1.438-.086-.562-.026-1.107.094-1.874.119-.767.59-4.027.59-4.027v-.001zm5.107 7.12l.73-5.072c.06-.411.382-1.16.887-1.574.545-.454 1.226-.701 1.928-.699.782 0 1.24.196 1.503.345.16.088.307.2.436.33.19-.169.406-.303.64-.396.44-.208.922-.306 1.405-.288.687 0 1.328.227 1.61.51.28.284.372.454.48.946.032.291.026.586-.018.876l-.714 5.025H61.84s.631-4.444.669-4.7c.037-.257.106-.795-.069-1.03-.175-.234-.487-.296-.725-.278-.238.017-.73.092-.862.898-.131.806-.747 5.111-.747 5.111h-1.808s.662-4.62.691-4.863c.03-.243.073-.82-.246-1.03-.319-.208-.89-.16-1.124.172-.234.331-.285.491-.365.997-.08.506-.675 4.724-.675 4.724l-1.813-.004z"/>
    </g>
</svg>
