<svg xmlns="http://www.w3.org/2000/svg" width="80" height="45" viewBox="0 0 80 45">
    <g fill="none" fill-rule="evenodd">
        <path fill="#FFF" d="M0 0L80 0 80 45 0 45z"/>
        <path fill="#06D0FF" fill-rule="nonzero" d="M37.7 16.043c-.2-.81-.751-1.479-1.49-1.81-.76-.348-1.634-.305-2.359.117-1.804 1.038-2.805 3.76-3.348 6.322-.8-.537-1.362-1.42-1.639-2.539l-.864.562c.407 1.36 1.21 2.423 2.3 3.027-.234 1.358-.385 2.73-.452 4.107v.064c-.021.437-.068 1.441-.026 2.53l.963-.625c-.01-.81.022-1.51.038-1.856v-.065c.06-1.265.194-2.525.404-3.773 1.526.426 3.254.012 4.719-1.157 1.398-1.111 2.154-3.222 1.755-4.904zm-2.346 4.099c-1.24.992-2.688 1.34-3.928.964.522-2.554 1.433-5.025 2.9-5.869.459-.266 1.012-.292 1.492-.07.461.204.806.617.934 1.12.3 1.27-.327 3.002-1.398 3.855zm16.96 1.068c.467-.983.737-2.541.413-3.513-.228-.681-.743-1.053-1.396-1.03-1.247.04-1.73 1.662-1.964 2.44-.598 2.071-.946 4.21-1.037 6.37l-.114.088c-.216.167-.701.551-.906.566-.058-.13-.089-.272-.091-.416-.024-.305 0-1.097.027-1.733.015-.391.026-.73.026-.927-.01-.808-.472-1.329-1.18-1.329-.562 0-1.25.348-1.785.906-.56.582-.998 1.277-1.287 2.043-.137.36-.216.743-.235 1.13-.094.076-.184.146-.242.186-.684.477-.88.313-.945.26-.31-.263-.011-1.058.25-1.76.248-.657.48-1.275.37-1.792-.032-.154-.134-.282-.272-.346-.14-.063-.299-.053-.43.027-.206.124-.872.279-1.262.292l.028-.165c.045-.292.15-.975-.358-1.49-.34-.344-.89-.375-1.335-.074-.491.328-.69.971-.474 1.535.16.458.507.82.948.987-.375 1.134-1.035 2.438-1.664 2.936-.083-.308-.164-1.077-.056-2.997.008-.146.014-.255.015-.314.02-.291.01-.701-.28-1.02-.195-.216-.47-.333-.754-.322-.253.007-.503.064-.736.167-.23.09-.45.203-.658.337-.89.616-1.588 1.491-2.005 2.516-.28.753-.242 1.514.101 2.042.243.375.65.598 1.083.596.442 0 .914-.218 1.364-.626.338-.296.641-.633.903-1.004.06.899.236 1.377.55 1.589.113.075.244.115.378.115.131-.002.26-.038.376-.105 1.015-.551 1.884-2.334 2.33-3.727h.23c.319-.015.636-.06.947-.136-.063.201-.14.417-.22.614-.361.964-.811 2.165.036 2.877.522.438 1.2.38 2.017-.172.206.358.581.573.982.563.842 0 1.649-.802 1.738-.894.198-.202.38-.42.545-.652.025.281.11.938.631 1.183.118.054.246.082.375.081.335 0 .677-.176 1-.395-.02 1.188.017 2.431.11 3.73l.911-.592c-.08-1.35-.102-2.633-.057-3.851.7-.495 1.317-.81 1.85-.947l.401-1.053c-.648.038-1.37.291-2.184.792.122-1.83.441-3.641.951-5.398.154-.518.515-1.732 1.091-1.75.204-.008.364.052.47.37.215.646.021 1.736-.242 2.464l.722.728zm-15.897 1.815c-.018.198-.058.394-.118.583-.328 1.056-.578 1.64-1.45 2.43-.272.247-.536.383-.742.383-.121.003-.235-.06-.3-.166-.124-.189-.198-.597 0-1.127.346-.833.914-1.547 1.636-2.055.158-.1.323-.185.496-.253.125-.057.259-.091.395-.099h.06s.043.073.023.304zm2.935-.679c-.009.05-.017.102-.028.156-.148-.077-.262-.21-.32-.37-.056-.115-.03-.254.063-.339.048-.048.111-.077.178-.081h.021c.097.103.149.24.089.634h-.003zm6.976.718c0 .14-.016.281-.045.419-.17.88-.59 1.688-1.208 2.316-.296.302-.78.613-1.076.613-.075 0-.14-.011-.206-.157-.091-.199-.11-.63.114-1.245.242-.635.608-1.211 1.074-1.692.403-.423.859-.614 1.111-.614.109 0 .232 0 .236.36zm5.612 3.252v1.004h.966v-1.004h-.966z"/>
    </g>
</svg>
