<svg xmlns="http://www.w3.org/2000/svg" width="80" height="45" viewBox="0 0 80 45">
    <g fill="none" fill-rule="evenodd">
        <path fill="#FFF" d="M0 0L80 0 80 45 0 45z"/>
        <path fill="#7F7F7F" fill-rule="nonzero" d="M67.804 33.641l.324 2.641 1.172-2.641h.903l-2.21 4.579c-.307.616-.713.92-1.216.913-.124-.005-.266-.029-.424-.072l.069-.679.148.015c.198.007.36-.032.49-.117.128-.086.236-.219.324-.4l.196-.403-.624-3.836h.848zm-50.99-1.35l-.114.758h-1.934l-.355 1.26c.235-.14.49-.21.765-.21.426.005.752.169.981.491.229.322.322.74.281 1.252-.041.527-.23.958-.565 1.292-.336.334-.75.497-1.245.487-.418-.01-.757-.15-1.018-.422-.26-.272-.398-.63-.412-1.075h.782c.017.245.083.437.199.575.116.138.278.21.487.215.255.007.47-.09.643-.293.174-.202.278-.471.312-.808.028-.298-.02-.54-.141-.723-.122-.184-.304-.279-.545-.284-.147-.004-.278.02-.394.074-.116.055-.23.13-.34.226l-.672-.177.658-2.638h2.627zm3.35-.028l-.07.728-.044-.003c-.441-.005-.824.12-1.148.373-.324.254-.578.638-.761 1.153.303-.308.649-.457 1.037-.447.269.005.498.083.686.236.188.153.326.362.414.628.087.266.117.555.09.868-.028.341-.124.655-.287.94-.163.285-.376.505-.64.66-.262.155-.55.23-.863.222-.397-.01-.72-.158-.968-.444-.248-.286-.39-.663-.424-1.13-.02-.257.006-.6.08-1.031.149-.859.467-1.533.956-2.02.488-.49 1.109-.733 1.863-.733h.079zm13.352-.044c.313.007.59.079.834.215s.43.325.559.566c.128.242.188.518.179.829l-.848-.004c.016-.274-.042-.487-.174-.639-.132-.151-.331-.23-.598-.238-.269-.005-.496.061-.68.199-.186.137-.294.322-.326.555-.046.306.149.546.586.722l.258.097c.526.198.894.43 1.103.695.21.266.301.58.276.944-.023.296-.116.554-.28.774-.163.22-.388.39-.677.51-.288.12-.606.178-.953.173-.328-.002-.626-.074-.894-.216-.268-.142-.473-.339-.615-.59-.143-.251-.208-.537-.197-.857l.851.004c-.018.298.052.528.21.689.16.16.387.244.683.249.276.005.506-.057.691-.184.185-.128.296-.31.333-.545.05-.347-.13-.604-.541-.772l-.28-.109c-.519-.19-.888-.415-1.106-.674-.218-.26-.317-.562-.296-.906.018-.298.115-.561.291-.789.176-.227.407-.402.694-.525.288-.122.593-.18.917-.173zm4.167 0c.313.007.59.079.834.215s.43.325.559.566c.129.242.188.518.18.829l-.849-.004c.016-.274-.042-.487-.174-.639-.132-.151-.331-.23-.598-.238-.269-.005-.496.061-.68.199-.186.137-.294.322-.326.555-.046.306.149.546.586.722l.258.097c.526.198.894.43 1.103.695.21.266.301.58.276.944-.023.296-.116.554-.28.774-.163.22-.388.39-.677.51-.288.12-.606.178-.953.173-.328-.002-.626-.074-.894-.216-.268-.142-.473-.339-.615-.59-.143-.251-.208-.537-.197-.857l.852.004c-.019.298.051.528.21.689.158.16.386.244.682.249.276.005.506-.057.691-.184.185-.128.296-.31.333-.545.05-.347-.13-.604-.541-.772l-.28-.109c-.519-.19-.888-.415-1.106-.674-.218-.26-.317-.562-.296-.906.018-.298.115-.561.291-.789.176-.227.407-.402.695-.525.287-.122.592-.18.916-.173zm20.07 1.422l-.406 2.537c-.01.089-.01.175-.004.26.023.298.167.453.431.465.36.014.653-.137.876-.455l.468-2.807h.817l-.644 3.904h-.765l.072-.386c-.283.315-.637.468-1.062.458-.241-.004-.441-.067-.601-.187-.16-.12-.274-.288-.341-.504-.068-.215-.088-.468-.06-.76l.403-2.525h.816zm-10.422-1.422c.312.007.59.079.834.215.243.136.43.325.558.566.129.242.189.518.18.829l-.849-.004c.017-.274-.041-.487-.174-.639-.132-.151-.331-.23-.598-.238-.268-.005-.495.061-.68.199-.185.137-.294.322-.326.555-.046.306.15.546.586.722l.258.097c.527.198.894.43 1.103.695.21.266.301.58.276.944-.023.296-.116.554-.28.774-.162.22-.388.39-.676.51-.289.12-.606.178-.953.173-.329-.002-.627-.074-.895-.216-.267-.142-.473-.339-.615-.59-.143-.251-.208-.537-.196-.857l.85.004c-.018.298.053.528.211.689.159.16.386.244.683.249.275.005.506-.057.69-.184.186-.128.296-.31.333-.545.05-.347-.13-.604-.54-.772l-.28-.109c-.52-.19-.888-.415-1.107-.674-.218-.26-.317-.562-.296-.906.018-.298.116-.561.291-.789.176-.227.408-.402.695-.525.287-.122.593-.18.917-.173zm3.715 1.35c.467.01.816.191 1.05.545.233.353.32.814.263 1.382l-.048.375h-2.347c-.02.31.039.56.18.75.14.19.332.288.578.293.352.012.676-.148.972-.48l.414.455c-.156.233-.362.414-.617.543-.255.128-.534.19-.838.185-.324-.007-.605-.092-.842-.256-.238-.163-.414-.387-.528-.67-.114-.285-.157-.601-.129-.95l.01-.148c.042-.397.153-.753.333-1.07.18-.316.405-.556.674-.72.269-.163.56-.241.875-.234zm3.709 0c.404.01.727.15.968.42.242.27.362.623.362 1.056h-.765c0-.224-.052-.407-.157-.549-.104-.142-.255-.218-.453-.227-.32-.01-.571.132-.755.426-.184.293-.282.707-.296 1.24-.016.648.197.976.64.986.196.005.37-.055.52-.179.15-.124.246-.285.287-.485l.772-.004c-.025.258-.114.492-.267.704-.152.212-.348.377-.587.494-.24.118-.489.174-.748.166-.32-.004-.592-.091-.817-.26-.225-.168-.39-.4-.493-.698-.103-.297-.138-.628-.103-.994l.01-.126c.039-.378.144-.72.315-1.027.171-.306.393-.543.664-.709.27-.166.572-.244.903-.234zm-25.995-.877l-.159.949h.638l-.107.65h-.641l-.352 2.186c-.006.06-.008.114-.003.163.014.156.106.238.276.245.085 0 .181-.01.29-.033l-.056.686c-.17.05-.341.076-.513.076-.285-.005-.498-.107-.64-.305-.141-.199-.197-.461-.167-.789l.348-2.23h-.596l.11-.649h.593l.159-.949h.82zm37.424 0l-.158.949h.637l-.107.65h-.64l-.352 2.186c-.007.06-.008.114-.004.163.014.156.106.238.276.245.085 0 .181-.01.29-.033l-.056.686c-.17.05-.34.076-.513.076-.285-.005-.498-.107-.64-.305-.14-.199-.197-.461-.167-.789l.348-2.23h-.596l.11-.649h.593l.159-.949h.82zm-3.833.87c.076 0 .18.018.314.054l-.093.826c-.106-.024-.213-.036-.32-.036-.36-.01-.644.145-.855.465l-.448 2.674h-.817l.644-3.904.776-.004-.083.444c.255-.353.55-.527.882-.52zm-35.687.079l-.648 3.904H25.2l.648-3.904h.817zm37.424 0l-.648 3.904h-.816l.648-3.904h.816zm-42.342-1.35l1.54.004c.543.002.95.126 1.222.37.273.244.393.583.36 1.016-.04.51-.338.893-.892 1.15.207.078.366.218.479.423.113.204.16.449.145.732-.032.482-.217.862-.553 1.14-.337.28-.781.42-1.333.42h-1.84l.872-5.255zm-10.454-.072c.437.01.782.142 1.036.397s.366.597.336 1.025c-.04.49-.32 1.01-.845 1.555l-.213.22-1.451 1.43h2.23l-.107.7H9l.097-.64 2.085-2.096c.388-.397.602-.756.64-1.079.03-.228-.006-.419-.11-.572-.103-.153-.258-.234-.465-.243-.255-.01-.47.074-.644.25-.175.177-.28.418-.317.724l-.814.004c.023-.323.117-.613.281-.87.164-.257.383-.458.655-.6.272-.144.567-.212.884-.205zm29.828.072l-.752 4.525h2.213l-.124.73h-3.06l.871-5.255h.852zm-22.18 2.48c-.184-.005-.356.046-.517.153-.16.107-.296.259-.406.456l-.024.258c-.009.113-.012.2-.01.262 0 .308.053.552.161.732.108.18.263.273.465.278.249.007.46-.09.633-.292.173-.202.277-.467.312-.794.03-.305-.01-.556-.12-.75-.111-.195-.275-.296-.494-.304zm3.178.404l-.272 1.641.893.004c.268 0 .497-.075.685-.224.189-.149.3-.353.335-.613.032-.248-.004-.442-.107-.581-.104-.14-.275-.214-.514-.224l-1.02-.003zm28.883-.906c-.432-.015-.756.305-.972.96l1.548.003.014-.076c.016-.11.017-.218.003-.324-.025-.171-.09-.306-.193-.404-.103-.099-.236-.152-.4-.16zm-28.528-1.241l-.245 1.475.783.004c.28 0 .509-.07.686-.21.177-.139.281-.328.313-.566.058-.45-.16-.683-.651-.7l-.886-.003zm3.95-.874c.133-.004.244.038.333.128.088.09.132.2.132.33 0 .138-.043.25-.129.34-.086.089-.196.136-.33.14-.13.005-.24-.036-.33-.124-.09-.088-.134-.197-.134-.327 0-.132.041-.245.124-.339.082-.094.194-.143.334-.148zm37.424 0c.133-.004.244.038.333.128.088.09.132.2.132.33 0 .138-.043.25-.129.34-.086.089-.196.136-.329.14-.13.005-.241-.036-.33-.124-.09-.088-.135-.197-.135-.327 0-.132.041-.245.124-.339.083-.094.194-.143.334-.148zM53.843 7c.353 0 .691.147.94.409.215.224.349.517.382.83l.009.157v16.912c0 .371-.14.727-.39.99-.218.229-.505.37-.81.402l-.131.007H25.446c-.354 0-.692-.148-.942-.41-.214-.225-.347-.519-.38-.831l-.009-.158V8.396c0-.725.528-1.322 1.202-1.39L25.446 7h28.397zm-.866 2.305H26.311V24.4h26.666V9.304zm-13.392 2.243c.348 0 1.255.877 2.274 1.203.37.1.75.154 1.132.158l.287-.007c.055 0 .172 0 .2.183l.007.158.011 2.771c0 .246-.024.49-.069.73l-.052.24c-.003.04-.026.077-.06.097-.034.02-.075.02-.11.003-.186-.062-.382-.091-.577-.087-1.213.029-2.174 1.084-2.148 2.358 0 .431.108.855.315 1.228.02.02.031.05.029.08-.002.019-.009.037-.02.052l-.021.02c-.333.334-.747.564-1.198.664-.783 0-3.913-2.608-3.913-5.386l.047-2.93c.023-.174.083-.205.137-.21h.05c.552.06 1.11.02 1.647-.123 1.021-.323 1.684-1.202 2.032-1.202zm4.338 6.53c.051-.002.102.019.138.057l.213.217c.079.082.083.215.01.303l-1.643 1.9c-.075.087-.2.1-.289.03l-1.36-1.104c-.086-.072-.103-.202-.04-.295l.175-.254c.03-.045.076-.075.128-.083.05-.008.103.006.145.039l.871.702c.09.07.215.056.29-.03l1.227-1.414c.034-.041.083-.066.135-.068z"/>
    </g>
</svg>
