<svg xmlns="http://www.w3.org/2000/svg" width="80" height="45" viewBox="0 0 80 45">
    <g fill="none" fill-rule="evenodd">
        <path fill="#FFF" d="M0 0L80 0 80 45 0 45z"/>
        <g fill-rule="nonzero">
            <path fill="#455661" d="M20.364 2.258c.883 0 1.707-.02 2.53.008.44.015.64.235.715.695.223 1.384.433 2.769.649 4.159.01.057.022.112.049.253.086-.16.139-.245.178-.338.578-1.341 1.157-2.683 1.727-4.025.15-.352.389-.67.749-.684.912-.05 1.828-.016 2.777-.016-.06.128-.109.247-.17.361-1.519 2.91-3.041 5.82-4.567 8.732-.718 1.365-1.76 2.35-3.33 2.514-.944.1-1.908.02-2.909.02.123-.672.226-1.342.37-2.004.083-.385.352-.562.753-.546.4.016.776.007 1.165 0 .998-.012 1.605-.826 1.335-1.799-.642-2.308-1.284-4.615-1.924-6.921-.031-.118-.056-.232-.097-.41zM1.198 4.36H0c.132-.727.249-1.409.373-2.121.324 0 .613-.012.903 0 .222.012.317-.058.353-.297.09-.638.222-1.271.332-1.933.582 0 1.14-.025 1.695.008.556.034.776.326.718.887-.042.427-.132.85-.2 1.318h1.657c-.132.74-.247 1.43-.37 2.138H3.786c-.154.94-.324 1.878-.447 2.804-.057.437.227.723.718.816.235.045.477.06.762.093-.133.736-.248 1.459-.39 2.177-.015.07-.18.163-.265.156-.578-.04-1.17-.04-1.728-.178C1.058 9.888.446 8.873.685 7.45c.148-.884.31-1.767.463-2.65.022-.131.03-.266.05-.44zM5.404 10.32l1.391-8.022c.643 0 1.26-.03 1.873.01.353.025.529.296.529.685-.01.317-.07.632-.1.883.416-.393.834-.859 1.322-1.228.512-.387 1.156-.548 1.787-.448l-.445 2.596c-.435.038-.84.026-1.222.115-.965.227-1.572.884-1.8 1.836-.243 1.014-.397 2.05-.583 3.077-.03.157-.058.314-.091.495h-2.66z" transform="translate(26 15)"/>
            <path fill="#2EB7C5" d="M16.567 2.163c-.132.767-.35 2.506-.35 2.506s-.24.02-.299.036c-.63.182-1.031.593-1.158 1.227-.14.695.094 1.275.66 1.715.04.03.234.192.234.192s-.297 1.67-.424 2.44c-2.017-.575-3.282-2.6-2.932-4.697.405-2.436 2.594-3.614 4.27-3.42zM16.11 10.417c.121-.73.264-1.43.383-2.136l.06-.328c.072-.009.143-.022.214-.038.596-.146 1.048-.638 1.149-1.252.132-.7-.087-1.269-.661-1.698-.053-.021-.108-.036-.164-.043l.397-2.51c1.416.199 3.014 1.902 2.951 3.982-.085 2.784-2.514 4.3-4.33 4.023z" transform="translate(26 15)"/>
        </g>
    </g>
</svg>
