<svg xmlns="http://www.w3.org/2000/svg" width="80" height="45" viewBox="0 0 80 45">
    <g fill="none" fill-rule="evenodd">
        <path fill="#FFF" d="M0 0L80 0 80 45 0 45z"/>
        <path fill="#7F7F7F" fill-rule="nonzero" d="M46.62 33.641l.324 2.641 1.172-2.641h.903L46.81 38.22c-.308.616-.713.92-1.217.913-.124-.005-.265-.029-.424-.072l.07-.679.147.015c.198.007.361-.032.49-.117.129-.086.237-.219.324-.4l.196-.403-.623-3.836h.847zm-7.186-1.638l-.92 5.542h-.73l.054-.404c-.29.33-.63.49-1.02.48-.347-.005-.624-.145-.832-.42-.208-.276-.32-.642-.336-1.1-.007-.148-.004-.294.01-.436l.01-.076c.046-.401.15-.762.31-1.082.161-.32.36-.559.597-.716.236-.158.5-.233.789-.226.38.01.676.158.89.444l.358-2.006h.82zm23.027 1.566c.407.01.724.138.952.384.227.247.321.566.282.958l-.286 1.83-.027.324c-.007.142.01.28.051.415l-.003.065h-.81c-.028-.096-.04-.217-.035-.364-.307.3-.64.446-.996.436-.324-.004-.592-.113-.804-.326-.213-.213-.312-.483-.299-.81.019-.412.189-.735.51-.97.322-.237.754-.355 1.297-.355l.53.008.049-.267c.013-.094.013-.182 0-.264-.046-.26-.21-.393-.493-.4-.175-.005-.328.041-.46.139-.133.097-.214.228-.243.391l-.817.007c.016-.24.097-.451.244-.633s.343-.323.586-.424c.244-.1.501-.149.772-.144zm-3.698 0c.395.005.718.121.967.35.25.228.372.528.367.898l-.81-.003c.005-.18-.043-.322-.141-.424-.1-.103-.235-.156-.407-.16-.182 0-.337.046-.467.14-.13.094-.205.216-.226.368-.032.219.115.371.441.456.327.086.568.165.724.237.455.209.675.536.658.981-.011.248-.089.464-.232.648-.144.184-.336.325-.577.422-.242.098-.498.143-.77.135-.406-.004-.743-.128-1.01-.371-.268-.243-.4-.555-.395-.935l.789.004c.005.21.064.368.18.476.114.108.271.164.471.166.203 0 .37-.044.505-.132.135-.087.213-.208.236-.362.04-.238-.108-.404-.442-.496l-.3-.087-.227-.074c-.065-.022-.117-.043-.158-.061-.473-.212-.702-.534-.686-.967.012-.352.164-.642.457-.872.293-.23.644-.342 1.053-.337zm-36.848 0c.466.01.816.191 1.049.545.233.353.321.814.264 1.382l-.049.375h-2.347c-.02.31.04.56.18.75.14.19.333.288.579.293.351.012.675-.148.971-.48l.414.455c-.156.233-.362.414-.617.543-.255.128-.534.19-.837.185-.324-.007-.605-.092-.843-.256-.238-.163-.414-.387-.527-.67-.114-.285-.157-.601-.13-.95l.01-.148c.042-.397.153-.753.333-1.07.18-.316.405-.556.674-.72.269-.163.56-.241.876-.234zm11.95 0c.466.01.815.191 1.049.545.233.353.32.814.263 1.382l-.048.375h-2.347c-.02.31.039.56.18.75.14.19.332.288.578.293.352.012.676-.148.972-.48l.414.455c-.156.233-.362.414-.617.543-.255.128-.534.19-.838.185-.324-.007-.605-.092-.842-.256-.238-.163-.414-.387-.528-.67-.114-.285-.157-.601-.129-.95l.01-.148c.042-.397.153-.753.333-1.07.18-.316.405-.556.674-.72.269-.163.56-.241.875-.234zm8.216-1.278l1.54.004c.543.002.95.126 1.223.37.272.244.392.583.36 1.016-.042.51-.34.893-.893 1.15.207.078.367.218.48.423.112.204.16.449.144.732-.032.482-.217.862-.553 1.14-.337.28-.78.42-1.332.42h-1.84l.871-5.255zm-16.32 1.27c.076 0 .18.019.314.055l-.093.826c-.106-.024-.213-.036-.32-.036-.36-.01-.644.145-.856.465l-.448 2.674h-.817l.645-3.904.775-.004-.082.444c.255-.353.549-.527.882-.52zm5.739.08l-.645 3.904h-.82l.648-3.904h.817zm-14.597-1.35l.607 4.103 1.847-4.103h.965l-2.537 5.254h-.823L16 32.291h.903zm10.595 1.35l-.648 3.904h-.817l.648-3.904h.817zm29.073 0l-.648 3.904h-.817l.648-3.904h.817zm-26.26-1.718c.179.003.354.027.525.073.171.045.342.096.512.151l-.196.722c-.29-.123-.563-.184-.82-.184-.488-.005-.777.235-.87.721l-.044.239.741-.004-.11.65h-.71l-.541 3.254h-.817l.537-3.255h-.551l.11-.649.524.004.048-.293c.08-.457.266-.812.555-1.064.29-.253.659-.374 1.107-.365zm21.662.368l.607 4.103 1.847-4.103h.965l-2.537 5.254h-.823l-.962-5.254h.903zm10.399 3.418c-.308 0-.554.06-.738.182-.184.121-.288.288-.313.5-.019.16.015.288.101.38.086.093.205.142.357.146.172.005.332-.036.479-.124.11-.066.208-.146.294-.241l.082-.1.127-.74-.39-.003zm-24.84-1.426c-.313-.01-.565.135-.755.433-.191.299-.296.701-.314 1.21-.016.297.028.534.133.71.104.176.26.266.467.27.315.01.587-.15.817-.48l.279-1.677c-.108-.301-.317-.456-.628-.466zm4.921.892l-.272 1.641.893.004c.269 0 .497-.075.686-.224.188-.149.3-.353.334-.613.032-.248-.003-.442-.107-.581-.103-.14-.274-.214-.513-.224l-1.02-.003zm-20.583-.906c-.432-.015-.756.305-.972.96l1.547.003.014-.076c.016-.11.017-.218.004-.324-.026-.171-.09-.306-.193-.404-.104-.099-.237-.152-.4-.16zm11.95 0c-.433-.015-.757.305-.973.96l1.548.003.014-.076c.016-.11.017-.218.003-.324-.025-.171-.09-.306-.193-.404-.103-.099-.236-.152-.4-.16zm8.988-1.241l-.244 1.475.782.004c.28 0 .509-.07.686-.21.177-.139.281-.328.314-.566.057-.45-.16-.683-.652-.7l-.886-.003zm13.522-.874c.133-.004.244.038.332.128.089.09.133.2.133.33 0 .138-.043.25-.13.34-.085.089-.195.136-.328.14-.131.005-.242-.036-.331-.124-.09-.088-.135-.197-.135-.327 0-.132.042-.245.124-.339.083-.094.195-.143.335-.148zm-29.073 0c.133-.004.244.038.332.128.089.09.133.2.133.33 0 .138-.043.25-.13.34-.085.089-.195.136-.328.14-.131.005-.241-.036-.331-.124-.09-.088-.135-.197-.135-.327 0-.132.042-.245.125-.339.082-.094.194-.143.334-.148zM54.04 7c.692 0 1.26.554 1.325 1.262l.007.134v16.912c0 .37-.14.727-.39.989-.218.23-.505.371-.81.403l-.132.007H25.643c-.353 0-.692-.148-.941-.41-.214-.225-.347-.519-.38-.831l-.01-.158V8.396c.001-.725.529-1.322 1.203-1.39L25.643 7H54.04zm-.864 2.305H26.509V24.4h26.667V9.304zm-5.308 3.972l.112.009h1.267c.077 0 .147.045.182.115l.02.056 1.416 6.715c.013.064-.002.131-.041.183-.026.034-.062.059-.1.071l-.062.01h-1.3c-.097 0-.182-.071-.203-.171l-.19-.9h-2.38l-.34.933c-.024.068-.079.117-.143.134l-.05.006h-1.49c-.07 0-.135-.037-.173-.098-.029-.047-.039-.103-.03-.156l.016-.053 2.628-6.252c.144-.37.488-.605.86-.602zm-9.037.002c.062 0 .12.027.16.076.027.033.043.073.048.115l-.001.063-1.092 6.72c-.013.084-.071.15-.146.173l-.058.009h-1.436c-.061 0-.12-.028-.159-.076-.026-.034-.042-.073-.047-.115l.001-.063 1.09-6.721c.014-.084.072-.15.146-.172l.059-.01h1.435zm-2.678.01c.07 0 .134.037.172.098.03.045.04.1.032.153l-.014.052-2.744 6.706c-.026.064-.08.11-.142.126l-.049.006h-1.673c-.074 0-.14-.04-.177-.105l-.022-.052-1.452-5.214c-.025-.09.008-.188.082-.24.074-.054.173-.051.244.008.785.615 1.439 1.394 1.92 2.286l.16.316.194.736 1.765-4.738c.025-.067.079-.115.143-.132l.05-.006h1.51zm6.795.002c.485-.003.967.073 1.43.224.08.026.136.098.146.18l-.001.064-.17 1.044c-.01.064-.048.12-.102.153-.054.032-.119.037-.177.014-.308-.126-.633-.202-.962-.226l-.248-.008h-.055c-.677 0-1.03.297-1.03.59 0 .33.383.54 1.012.861 1.027.488 1.506 1.084 1.498 1.87-.01 1.432-1.238 2.359-3.116 2.359-.621-.003-1.238-.105-1.83-.304-.077-.028-.13-.1-.137-.182l.002-.063.178-1.092c.01-.065.049-.122.104-.154.055-.032.121-.035.18-.01.525.252 1.1.375 1.678.358.512 0 1.065-.21 1.07-.673.003-.28-.197-.485-.775-.78l-.152-.076c-.68-.33-1.58-.883-1.57-1.875.01-1.337 1.255-2.274 3.027-2.274zm5.162 1.925l-.985 2.683h1.54l-.43-2.065-.125-.618zM30.983 13.27c.329-.034.636.159.767.468l.036.107v.012l.346 1.717c.021.1-.027.201-.116.244-.089.042-.193.014-.252-.067-.728-.957-1.704-1.673-2.811-2.061-.09-.04-.143-.138-.126-.24.013-.08.068-.144.14-.169l.055-.011h1.961z"/>
    </g>
</svg>
