<svg xmlns="http://www.w3.org/2000/svg" width="80" height="45" viewBox="0 0 80 45">
    <g fill="none" fill-rule="evenodd">
        <path fill="#FFF" d="M0 0L80 0 80 45 0 45z"/>
        <g>
            <path fill="#0095D6" d="M10.418 1.352c.007.217-.057.431-.182.61L6.094 8.127 6.19.602H0l2.04.913c.58.345.871.793.847 1.359l.23 7.969h3.015L13.835.603h-3.712c.209.192.318.468.295.75zM35.23.905l.262-.303h-3.73c.124.122.164.184.162.224-.058.132-.124.261-.197.386l-5.927 9.17c-.132.16-.277.301-.436.46h3.05l-.13-.3c.014-.265.194-.743.557-1.426l.715-1.128h3.142c.074.947.115 1.73.124 2.312l-.293.543h3.787l-.516-.763-.57-9.175zm-2.601 5.644h-2.257l2.136-3.456.12 3.456zM23.388 0c-1.137-.017-2.253.312-3.204.947-1.035.547-1.563 1.24-1.606 2.1-.05.986.27 1.843.945 2.492l2.09 1.402c.754.521 1.107.98 1.08 1.397-.027.418-.241.752-.634 1.023-.4.272-.875.41-1.356.394-.78 0-2.09-.52-3.889-1.478l-.097 1.936c1.406.81 2.784 1.232 4.142 1.232 1.29 0 2.397-.332 3.374-1.081 1.04-.684 1.574-1.506 1.62-2.397.04-.751-.278-1.44-1.042-2.17l-1.99-1.408c-.666-.524-1.021-.985-1.004-1.341.045-.822.58-1.232 1.632-1.232.715 0 1.745.378 3.104 1.174l.54-2.037c-1.135-.631-2.41-.96-3.705-.952zM14.805 10.843c-.023-.422-.09-.804-.111-1.206l3.079-8.285.673-.75h-3.872c.033.184.065.427.098.61-.004.205-.027.41-.071.61l-3.063 8.197-.585.824h3.852z" transform="translate(21 17)"/>
            <path fill="#FFD520" d="M6.305 3.614L0 0.602 6.341 0.602z" transform="translate(21 17)"/>
        </g>
    </g>
</svg>
